# xmcd CD database file
#
# Track frame offsets:
#	150
#	20177
#	40952
#	58066
#	76868
#	93599
#	113250
#	130864
#	150747
#	173303
#	191652
#
# Disc length: 2801 seconds
#
# Revision: 1
# Processed by: cddbd v1.4PL0 Copyright (c) Steve Scherf et al.
# Submitted via: CDex 1.50
#
DISCID=820aef0b
DTITLE=Frank Ash - Beyond The Clouds
DYEAR=2003
DGENRE=Blues
TTITLE0=Be my lighthouse
TTITLE1=Packing up
TTITLE2=Keep on
TTITLE3=I'm talkin' to u
TTITLE4=Poison
TTITLE5=Beyond the clouds
TTITLE6=We'd better
TTITLE7=Ain't no fool
TTITLE8=Love me
TTITLE9=Hey man
TTITLE10=Heaven
EXTD=YEAR: 2003
EXTT0=
EXTT1=
EXTT2=
EXTT3=
EXTT4=
EXTT5=
EXTT6=
EXTT7=
EXTT8=
EXTT9=
EXTT10=
PLAYORDER=
